<?xml version="1.0" encoding="UTF-8" standalone="no"?>
<svg
   xmlns="http://www.w3.org/2000/svg"
   id="svg8"
   version="1.1"
   viewBox="0 0 59.965508 67.392883"
   height="67.392883mm"
   width="59.965508mm">
  <defs
     id="defs2" />
  <g
     transform="translate(-57.707724,-84.898795)"
     id="layer1">
    <path
       id="path20"
       d="m 85.717398,152.00673 c -2.969078,-0.911 -6.394071,-5.9445 -8.195373,-12.04421 l -0.741029,-2.50934 -2.548906,0.65233 c -3.359437,0.85977 -9.945987,0.99572 -12.08229,0.24939 -6.63376,-2.31756 -5.759723,-9.62567 2.176404,-18.19763 l 1.460853,-1.5779 -1.460853,-1.5779 c -7.946147,-8.58278 -8.81854,-15.87715 -2.176404,-18.197621 2.135339,-0.746 8.722919,-0.61038 12.079348,0.24867 l 2.545966,0.65162 0.713153,-2.40249 c 4.895478,-16.49199 15.51533,-16.54695 20.370661,-0.10543 l 0.74103,2.50934 2.548902,-0.65233 c 3.35944,-0.85977 9.94599,-0.99572 12.08229,-0.24938 6.64214,2.320471 5.76975,9.614841 -2.1764,18.197621 l -1.46086,1.5779 1.46086,1.5779 c 7.93613,8.57196 8.81016,15.88007 2.1764,18.19763 -2.1363,0.74633 -8.72285,0.61038 -12.08229,-0.24939 l -2.548902,-0.65233 -0.74103,2.50934 c -2.663293,9.01866 -7.231893,13.55064 -12.14153,12.04421 z m 4.402807,-5.3554 c 1.278816,-0.811 3.107748,-3.16188 4.287149,-5.51062 0.788866,-1.57101 1.847824,-4.30521 1.709486,-4.41384 -0.05059,-0.0397 -1.342144,-0.55822 -2.870112,-1.15218 -1.527969,-0.59398 -3.403203,-1.35079 -4.167188,-1.68181 l -1.389062,-0.60187 -1.389063,0.60187 c -0.763984,0.33102 -2.639219,1.08783 -4.167189,1.68181 -1.527969,0.59396 -2.819519,1.11245 -2.870113,1.15218 -0.138337,0.10863 0.920618,2.84283 1.709486,4.41384 2.018172,4.01913 4.435117,6.27824 6.716879,6.27824 0.891048,0 1.545187,-0.20666 2.429727,-0.76762 z M 73.391957,135.50486 c 3.124262,-0.40543 2.894305,-0.0508 2.35519,-3.63236 -0.257194,-1.70867 -0.537726,-3.76152 -0.623401,-4.56188 -0.151291,-1.41332 -0.199244,-1.48553 -1.665878,-2.50864 -0.830556,-0.57939 -2.427561,-1.79978 -3.548901,-2.71198 -1.121339,-0.9122 -2.133371,-1.65458 -2.248958,-1.64972 -0.393047,0.0165 -3.064716,3.74991 -4.060391,5.674 -3.670385,7.09285 0.04472,10.65553 9.792339,9.39058 z m 36.443763,-0.39656 c 3.70851,-1.24279 4.37127,-4.30655 1.94561,-8.99402 -0.98394,-1.90142 -3.66543,-5.65705 -4.05119,-5.674 -0.11054,-0.005 -1.36382,0.91391 -2.78508,2.04169 -1.42126,1.12779 -3.02248,2.34706 -3.55826,2.7095 -0.87546,0.59222 -0.98992,0.80667 -1.12976,2.11667 -0.0856,0.80173 -0.36604,2.85569 -0.623236,4.56436 -0.53775,3.57254 -0.734925,3.2369 2.137106,3.63787 2.4213,0.33805 6.45662,0.13687 8.06481,-0.40207 z m -28.036176,-1.60548 c 3.955713,-1.32155 3.868599,-1.20415 1.761891,-2.37436 -1.003244,-0.55727 -2.880333,-1.65049 -4.171306,-2.42937 l -2.34722,-1.41614 0.181462,1.27061 c 0.32104,2.24792 1.242407,5.90081 1.488361,5.90081 0.13122,0 1.520285,-0.4282 3.086812,-0.95155 z m 15.641417,-1.36356 c 0.293788,-1.2733 0.615815,-2.88687 0.715618,-3.5857 l 0.181465,-1.27061 -2.347222,1.41614 c -1.290971,0.77888 -3.159882,1.86752 -4.153133,2.41921 -0.993254,0.55168 -1.746753,1.06222 -1.674447,1.13453 0.180742,0.18074 6.051783,2.18103 6.434878,2.19238 0.173302,0.005 0.542954,-1.0062 0.842841,-2.30595 z m -7.052252,-2.32718 c 3.454823,-1.73221 7.69915,-4.45503 8.07964,-5.18324 0.228412,-0.43716 0.326829,-2.2588 0.326829,-6.04947 0,-3.79067 -0.09842,-5.61232 -0.326829,-6.04947 -0.531551,-1.01732 -9.612562,-6.38595 -10.801813,-6.38595 -1.29694,0 -10.4599,5.52469 -10.845628,6.53924 -0.379479,0.9981 -0.301215,11.19366 0.0917,11.94565 0.524049,1.00297 9.504724,6.33964 10.729173,6.37569 0.191498,0.006 1.427615,-0.53096 2.746931,-1.19245 z m -5.601459,-4.01926 c -4.978249,-1.75704 -6.391082,-8.80157 -2.53799,-12.65466 4.870535,-4.87053 13.114134,-1.45017 13.114134,5.44121 0,5.45883 -5.301882,9.07498 -10.576144,7.21345 z m -10.117576,-9.58781 -0.07607,-2.37436 -2.579689,2.25009 c -1.418828,1.23755 -2.579687,2.36193 -2.579687,2.49863 0,0.1367 1.160859,1.26108 2.579687,2.49863 l 2.579689,2.25008 0.07607,-2.37435 c 0.04184,-1.3059 0.04184,-3.44282 0,-4.74872 z m 30.071916,3.63113 1.33743,-1.25677 -1.33743,-1.25677 c -0.73559,-0.69123 -1.95598,-1.77387 -2.71198,-2.40589 l -1.37455,-1.14912 v 4.81178 4.81178 l 1.37455,-1.14912 c 0.756,-0.63202 1.97639,-1.71467 2.71198,-2.40589 z m -34.832623,-4.7674 c 1.12134,-0.9122 2.718345,-2.13259 3.548901,-2.71198 1.466634,-1.02311 1.514587,-1.09532 1.665878,-2.50864 0.08567,-0.80036 0.365721,-2.85015 0.622321,-4.55509 0.541261,-3.59631 0.797375,-3.2459 -2.684866,-3.67332 -7.610347,-0.93412 -11.72672,1.37446 -10.759368,6.03416 0.494634,2.38264 4.42114,9.02523 5.358176,9.06459 0.115587,0.005 1.127619,-0.73752 2.248958,-1.64972 z m 39.403193,-0.21358 c 7.17817,-8.83461 4.13062,-14.60333 -6.99241,-13.23592 -3.48231,0.4281 -3.226117,0.0775 -2.684864,3.67379 0.256598,1.70494 0.537164,3.75473 0.623464,4.55509 0.15565,1.44341 0.17149,1.46548 1.95318,2.72193 0.98794,0.6967 2.55994,1.91149 3.49333,2.69952 2.01847,1.70415 1.87231,1.72094 3.6073,-0.41441 z m -25.750725,-8.82488 c 1.281181,-0.71166 1.714294,-1.07417 1.455208,-1.21802 -0.475673,-0.26408 -5.9898,-2.10789 -6.303911,-2.10789 -0.245954,0 -1.167321,3.65289 -1.488361,5.90082 l -0.181462,1.2706 2.34722,-1.41614 c 1.290973,-0.77888 3.168062,-1.87209 4.171306,-2.42937 z m 14.59307,2.56107 c -0.319074,-2.2354 -1.240988,-5.88698 -1.486284,-5.88698 -0.309729,0 -5.824907,1.84198 -6.292836,2.1017 -0.239152,0.13274 0.66413,0.78355 2.723917,1.96257 1.694947,0.97019 3.522832,2.05296 4.061968,2.40616 0.539139,0.3532 1.023533,0.64919 1.076436,0.65776 0.0529,0.009 0.01545,-0.54999 -0.0832,-1.24121 z m -7.485036,-5.97724 c 1.490252,-0.63173 3.334628,-1.36963 4.098613,-1.63977 0.763984,-0.27014 1.389001,-0.55695 1.38893,-0.63734 -7.94e-4,-0.933391 -2.133404,-5.263881 -3.635372,-7.382201 -3.664953,-5.16891 -7.990499,-4.02151 -11.548041,3.06323 -0.788958,1.5712 -1.8478,4.305161 -1.709486,4.413961 0.05059,0.0398 1.282613,0.52788 2.737821,1.08462 1.45521,0.55674 3.241148,1.28871 3.968752,1.62659 1.705163,0.79184 1.538385,0.81062 4.698783,-0.52909 z"
       style="fill:#ffffff;stroke-width:0.26458332" />
  </g>
</svg>
